<?xml version="1.0" encoding="utf-8" ?>
<svg baseProfile="full" height="500px" version="1.1" width="500px" xmlns="http://www.w3.org/2000/svg" xmlns:ev="http://www.w3.org/2001/xml-events" xmlns:xlink="http://www.w3.org/1999/xlink"><defs><style type="text/css"><![CDATA[@keyframes spin { from { transform: rotate(0deg); } to { transform: rotate(360deg); } } .spinner { transform-origin: 250px 250px; animation: spin 1s linear infinite; }]]></style><clipPath id="outer_clip"><circle cx="250" cy="250" r="200" /></clipPath></defs><g class="spinner"><g clip-path="url(#outer_clip)"><path d="M 50,250 A 200 200 0 0,0 450 250 Z" fill="white" /><path d="M 50,250 A 200 200 0 0,1 450 250 Z" fill="black" /><circle cx="250" cy="50" fill="white" r="200" stroke="black" stroke-width="2" /><circle cx="250" cy="450" fill="black" r="200" stroke="black" stroke-width="2" /><path d="M 250,50.0 L 250,250 L 150.0,150.0 A 100.0 100.0 0 0,0 250 50.0 Z" fill="white" /><path d="M 350.0,150.0 L 250,250 L 250,50.0 A 100.0 100.0 0 0,0 350.0 150.0 Z" fill="black" /><path d="M 350.0,150.0 L 250,250 L 150.0,150.0 A 100.0 100.0 0 0,1 350.0 150.0 Z" fill="white" /><path d="M 150.0,150.0 L 250,250 L 250,50.0 A 100.0 100.0 0 0,1 150.0 150.0 Z" fill="black" /><path d="M 150.0,350.0 L 250,250 L 350.0,350.0 A 100.0 100.0 0 0,0 150.0 350.0 Z" fill="white" /><path d="M 350.0,350.0 L 250,250 L 250,450.0 A 100.0 100.0 0 0,1 350.0 350.0 Z" fill="black" /><path d="M 250,450.0 L 250,250 L 350.0,350.0 A 100.0 100.0 0 0,1 250 450.0 Z" fill="white" /><path d="M 150.0,350.0 L 250,250 L 250,450.0 A 100.0 100.0 0 0,0 150.0 350.0 Z" fill="black" /><circle cx="250" cy="150.0" fill="black" r="100.0" stroke="black" stroke-width="2" /><circle cx="250" cy="350.0" fill="white" r="100.0" stroke="black" stroke-width="2" /><line stroke="black" stroke-width="2" x1="50" x2="450" y1="250" y2="250" /><polygon fill="white" points="250.0,250.0 227.66416041288602,180.742645786248 154.89434837048464,180.90169943749476 213.85985238078416,138.257354213752 191.22147477075268,69.09830056250527 250.0,112.0 308.7785252292473,69.09830056250524 286.14014761921584,138.257354213752 345.10565162951536,180.90169943749473 272.335839587114,180.742645786248" /><circle cx="250" cy="150.0" fill="black" r="38.0" /><polygon fill="black" points="250.0,250.0 272.335839587114,319.257354213752 345.10565162951536,319.09830056250524 286.14014761921584,361.742645786248 308.7785252292473,430.90169943749476 250.0,388.0 191.2214747707527,430.90169943749476 213.85985238078416,361.742645786248 154.89434837048464,319.0983005625053 227.66416041288602,319.257354213752" /><circle cx="250" cy="350.0" fill="white" r="38.0" /></g><circle cx="250" cy="250" fill="none" r="200" stroke="black" stroke-width="3" /></g></svg>