<?xml version="1.0" encoding="utf-8" ?>
<svg baseProfile="full" height="500px" version="1.1" width="500px" xmlns="http://www.w3.org/2000/svg" xmlns:ev="http://www.w3.org/2001/xml-events" xmlns:xlink="http://www.w3.org/1999/xlink"><defs><style type="text/css"><![CDATA[@keyframes spin { from { transform: rotate(0deg); } to { transform: rotate(360deg); } } .spinner { transform-origin: 250.0px 250.0px; animation: spin 1s linear infinite; }]]></style></defs><g class="spinner"><path d="M 250.0,50.0 A 200.0,200.0 0 0,1 250.0,450.0 A 100.0,100.0 0 0,1 250.0,250.0 A 100.0,100.0 0 0,0 250.0,50.0 Z" fill="black" /><path d="M 250.0,50.0 A 200.0,200.0 0 0,1 250.0,450.0 A 100.0,100.0 0 0,1 250.0,250.0 A 100.0,100.0 0 0,0 250.0,50.0 Z" fill="white" transform="rotate(180, 250.0, 250.0)" /><polygon fill="black" points="250.0,50.0 336.60254037844385,100.0 336.6025403784439,200.0 250.0,250.0 163.39745962155615,200.00000000000003 163.3974596215561,100.00000000000006" /><polygon fill="white" points="250.0,50.0 336.6025403784439,200.0 163.39745962155615,200.00000000000003" /><polygon fill="white" points="250.0,250.0 163.39745962155612,100.00000000000003 336.60254037844385,99.99999999999996" /><polygon fill="black" points="278.8675134594813,100.0 307.7350269189626,150.0 278.8675134594813,200.0 221.13248654051873,200.0 192.26497308103743,150.00000000000003 221.1324865405187,100.00000000000001" /><polygon fill="white" points="278.8675134594813,100.0 278.8675134594813,200.0 192.26497308103743,150.00000000000003" /><polygon fill="white" points="221.13248654051873,200.0 221.1324865405187,100.00000000000001 307.7350269189626,150.0" /><polygon fill="black" points="278.8675134594813,133.33333333333334 278.8675134594813,166.66666666666666 250.0,183.33333333333334 221.13248654051873,166.66666666666669 221.1324865405187,133.33333333333334 249.99999999999997,116.66666666666666" /><polygon fill="white" points="278.8675134594813,133.33333333333334 250.0,183.33333333333334 221.1324865405187,133.33333333333334" /><polygon fill="white" points="221.13248654051873,166.66666666666669 250.0,116.66666666666666 278.8675134594813,166.66666666666663" /><polygon fill="black" points="269.24500897298753,150.0 259.62250448649377,166.66666666666666 240.37749551350623,166.66666666666666 230.75499102701247,150.0 240.37749551350623,133.33333333333334 259.62250448649377,133.33333333333331" /><polygon fill="white" points="269.24500897298753,150.0 240.37749551350623,166.66666666666666 240.37749551350623,133.33333333333334" /><polygon fill="white" points="230.75499102701247,150.0 259.62250448649377,133.33333333333331 259.62250448649377,166.66666666666666" /><polygon fill="black" points="259.62250448649377,155.55555555555554 250.0,161.11111111111111 240.37749551350623,155.55555555555557 240.37749551350623,144.44444444444446 250.0,138.88888888888889 259.62250448649377,144.44444444444443" /><polygon fill="white" points="259.62250448649377,155.55555555555554 240.37749551350623,155.55555555555557 250.0,138.88888888888889" /><polygon fill="white" points="240.37749551350623,144.44444444444446 259.62250448649377,144.44444444444443 250.0,161.11111111111111" /><polygon fill="black" points="253.20750149549792,155.55555555555557 246.79249850450208,155.55555555555554 243.58499700900416,150.0 246.79249850450208,144.44444444444443 253.20750149549792,144.44444444444443 256.41500299099584,150.0" /><polygon fill="white" points="253.20750149549792,155.55555555555557 243.58499700900416,150.0 253.20750149549792,144.44444444444443" /><polygon fill="white" points="246.79249850450208,144.44444444444443 256.41500299099584,150.0 246.79249850450208,155.55555555555554" /><polygon fill="white" points="250.0,250.0 336.60254037844385,300.0 336.6025403784439,400.0 250.0,450.0 163.39745962155615,400.00000000000006 163.3974596215561,300.00000000000006" /><polygon fill="black" points="250.0,250.0 336.6025403784439,400.0 163.39745962155615,400.00000000000006" /><polygon fill="black" points="250.0,450.0 163.39745962155612,300.0 336.60254037844385,299.99999999999994" /><polygon fill="white" points="278.8675134594813,300.0 307.7350269189626,350.0 278.8675134594813,400.0 221.13248654051873,400.0 192.26497308103743,350.00000000000006 221.1324865405187,300.0" /><polygon fill="black" points="278.8675134594813,300.0 278.8675134594813,400.0 192.26497308103743,350.00000000000006" /><polygon fill="black" points="221.13248654051873,400.0 221.1324865405187,300.0 307.7350269189626,350.0" /><polygon fill="white" points="278.8675134594813,333.3333333333333 278.8675134594813,366.6666666666667 250.0,383.3333333333333 221.13248654051873,366.6666666666667 221.1324865405187,333.33333333333337 249.99999999999997,316.6666666666667" /><polygon fill="black" points="278.8675134594813,333.3333333333333 250.0,383.3333333333333 221.1324865405187,333.33333333333337" /><polygon fill="black" points="221.13248654051873,366.6666666666667 250.0,316.6666666666667 278.8675134594813,366.66666666666663" /><polygon fill="white" points="269.24500897298753,350.0 259.62250448649377,366.6666666666667 240.37749551350623,366.6666666666667 230.75499102701247,350.0 240.37749551350623,333.3333333333333 259.62250448649377,333.3333333333333" /><polygon fill="black" points="269.24500897298753,350.0 240.37749551350623,366.6666666666667 240.37749551350623,333.3333333333333" /><polygon fill="black" points="230.75499102701247,350.0 259.62250448649377,333.3333333333333 259.62250448649377,366.6666666666667" /><polygon fill="white" points="259.62250448649377,355.55555555555554 250.0,361.1111111111111 240.37749551350623,355.55555555555554 240.37749551350623,344.44444444444446 250.0,338.8888888888889 259.62250448649377,344.44444444444446" /><polygon fill="black" points="259.62250448649377,355.55555555555554 240.37749551350623,355.55555555555554 250.0,338.8888888888889" /><polygon fill="black" points="240.37749551350623,344.44444444444446 259.62250448649377,344.44444444444446 250.0,361.1111111111111" /><polygon fill="white" points="253.20750149549792,355.55555555555554 246.79249850450208,355.55555555555554 243.58499700900416,350.0 246.79249850450208,344.44444444444446 253.20750149549792,344.44444444444446 256.41500299099584,350.0" /><polygon fill="black" points="253.20750149549792,355.55555555555554 243.58499700900416,350.0 253.20750149549792,344.44444444444446" /><polygon fill="black" points="246.79249850450208,344.44444444444446 256.41500299099584,350.0 246.79249850450208,355.55555555555554" /><circle cx="250.0" cy="250.0" fill="none" r="201.0" stroke="black" stroke-width="1" /></g></svg>