<?xml version="1.0" encoding="utf-8" ?>
<svg baseProfile="full" height="500px" version="1.1" width="500px" xmlns="http://www.w3.org/2000/svg" xmlns:ev="http://www.w3.org/2001/xml-events" xmlns:xlink="http://www.w3.org/1999/xlink"><g><circle cx="250" cy="250" fill="white" r="200" stroke="black" stroke-width="3" /><path d="M 250,50 A 200,200 0 0,1 250,450 A 100.0,100.0 0 0,1 250,250 A 100.0,100.0 0 0,0 250,50 Z" fill="black" /><circle cx="250" cy="350.0" fill="black" r="50.0" stroke="black" stroke-width="2" /><polygon fill="black" points="250.0,80.0 310.6217782649107,115.0 310.6217782649107,185.0 250.0,220.0 189.3782217350893,185.00000000000003 189.37822173508926,115.00000000000004" stroke="white" stroke-width="2" /><polygon fill="white" points="250.0,118.5 277.2798002192098,134.25 277.27980021920985,165.75 250.0,181.5 222.72019978079018,165.75 222.72019978079018,134.25000000000003" stroke="white" stroke-width="1" /><polygon fill="white" points="250.0,280.0 310.6217782649107,315.0 310.6217782649107,385.0 250.0,420.0 189.3782217350893,385.0 189.37822173508926,315.00000000000006" stroke="black" stroke-width="2" /><polygon fill="black" points="250.0,318.5 277.2798002192098,334.25 277.27980021920985,365.75 250.0,381.5 222.72019978079018,365.75 222.72019978079018,334.25" stroke="black" stroke-width="1" /></g></svg>
