<?xml version="1.0" encoding="utf-8" ?>
<svg baseProfile="full" height="500px" version="1.1" width="500px" xmlns="http://www.w3.org/2000/svg" xmlns:ev="http://www.w3.org/2001/xml-events" xmlns:xlink="http://www.w3.org/1999/xlink"><defs><style type="text/css"><![CDATA[@keyframes spin { from { transform: rotate(0deg); } to { transform: rotate(360deg); } } .spinner { transform-origin: 250.0px 250.0px; animation: spin 1s linear infinite; }]]></style></defs><g class="spinner"><circle cx="250.0" cy="250.0" fill="white" r="201.0" stroke="black" stroke-width="1" /><polygon fill="black" points="250.0,50.0 423.2050807568877,150.0 423.20508075688775,350.0 250.0,450.0 76.7949192431123,350.00000000000006 76.79491924311219,150.0000000000001" /><polygon fill="white" points="250.0,50.0 423.20508075688775,350.0 76.7949192431123,350.00000000000006" /><polygon fill="white" points="423.2050807568877,150.0 250.00000000000006,450.0 76.79491924311219,150.0000000000001" /><polygon fill="black" points="307.73502691896255,150.0 365.47005383792515,250.0 307.7350269189626,350.0 192.26497308103745,350.0 134.52994616207485,250.00000000000006 192.26497308103737,150.00000000000003" /><polygon fill="white" points="307.73502691896255,150.0 307.7350269189626,350.0 134.52994616207485,250.00000000000006" /><polygon fill="white" points="365.47005383792515,250.0 192.26497308103745,350.0 192.26497308103737,150.00000000000003" /><polygon fill="black" points="307.7350269189626,216.66666666666666 307.7350269189626,283.3333333333333 250.00000000000003,316.6666666666667 192.26497308103743,283.33333333333337 192.2649730810374,216.66666666666669 249.99999999999991,183.33333333333331" /><polygon fill="white" points="307.7350269189626,216.66666666666666 250.00000000000003,316.6666666666667 192.2649730810374,216.66666666666669" /><polygon fill="white" points="307.7350269189626,283.3333333333333 192.26497308103743,283.33333333333337 250.0,183.33333333333331" /><polygon fill="black" points="288.49001794597507,250.0 269.24500897298753,283.33333333333337 230.75499102701247,283.33333333333337 211.50998205402493,250.0 230.75499102701244,216.66666666666666 269.24500897298753,216.66666666666663" /><polygon fill="white" points="288.49001794597507,250.0 230.75499102701247,283.33333333333337 230.75499102701244,216.66666666666666" /><polygon fill="white" points="269.24500897298753,283.33333333333337 211.50998205402493,250.00000000000003 269.24500897298753,216.66666666666663" /><polygon fill="black" points="269.24500897298753,261.1111111111111 250.0,272.22222222222223 230.75499102701247,261.11111111111114 230.75499102701247,238.88888888888889 250.0,227.77777777777777 269.24500897298753,238.88888888888886" /><polygon fill="white" points="269.24500897298753,261.1111111111111 230.75499102701247,261.11111111111114 250.0,227.77777777777777" /><polygon fill="white" points="250.0,272.22222222222223 230.75499102701247,238.88888888888889 269.24500897298753,238.88888888888886" /><polygon fill="black" points="256.41500299099584,261.11111111111114 243.58499700900416,261.11111111111114 237.1699940180083,250.0 243.58499700900416,238.88888888888889 256.41500299099584,238.88888888888889 262.8300059819917,250.0" /><polygon fill="white" points="256.41500299099584,261.11111111111114 237.1699940180083,250.0 256.41500299099584,238.88888888888889" /><polygon fill="white" points="243.58499700900416,261.11111111111114 243.58499700900416,238.88888888888889 262.8300059819917,250.0" /><polygon fill="black" points="250.0,257.4074074074074 243.58499700900416,253.7037037037037 243.58499700900416,246.2962962962963 250.0,242.59259259259258 256.41500299099584,246.29629629629628 256.41500299099584,253.7037037037037" /><polygon fill="white" points="250.0,257.4074074074074 243.58499700900416,246.2962962962963 256.41500299099584,246.29629629629628" /><polygon fill="white" points="243.58499700900416,253.7037037037037 250.0,242.59259259259258 256.41500299099584,253.7037037037037" /><polygon fill="black" points="247.86166566966804,253.7037037037037 245.7233313393361,250.0 247.86166566966804,246.2962962962963 252.13833433033196,246.2962962962963 254.2766686606639,250.0 252.13833433033196,253.7037037037037" /><polygon fill="white" points="247.86166566966804,253.7037037037037 247.86166566966804,246.2962962962963 254.2766686606639,250.0" /><polygon fill="white" points="245.7233313393361,250.0 252.13833433033196,246.2962962962963 252.13833433033196,253.7037037037037" /><polygon fill="black" points="247.86166566966804,251.23456790123458 247.86166566966804,248.76543209876544 250.0,247.53086419753086 252.13833433033196,248.76543209876542 252.13833433033196,251.23456790123456 250.0,252.46913580246914" /><polygon fill="white" points="247.86166566966804,251.23456790123458 250.0,247.53086419753086 252.13833433033196,251.23456790123456" /><polygon fill="white" points="247.86166566966804,248.76543209876544 252.13833433033196,248.76543209876542 250.0,252.46913580246914" /><polygon fill="black" points="248.5744437797787,250.0 249.28722188988934,248.76543209876544 250.71277811011066,248.76543209876542 251.4255562202213,250.0 250.71277811011066,251.23456790123456 249.28722188988934,251.23456790123458" /><polygon fill="white" points="248.5744437797787,250.0 250.71277811011066,248.76543209876542 250.71277811011066,251.23456790123456" /><polygon fill="white" points="249.28722188988934,248.76543209876544 251.4255562202213,250.0 249.28722188988934,251.23456790123458" /><polygon fill="black" points="249.28722188988934,249.58847736625515 250.0,249.1769547325103 250.71277811011066,249.58847736625515 250.71277811011066,250.41152263374485 250.0,250.8230452674897 249.28722188988934,250.41152263374485" /><polygon fill="white" points="249.28722188988934,249.58847736625515 250.71277811011066,249.58847736625515 250.0,250.8230452674897" /><polygon fill="white" points="250.0,249.1769547325103 250.71277811011066,250.41152263374485 249.28722188988934,250.41152263374485" /><polygon fill="black" points="249.7624072966298,249.58847736625515 250.2375927033702,249.58847736625515 250.47518540674042,250.0 250.2375927033702,250.41152263374485 249.7624072966298,250.41152263374485 249.52481459325958,250.0" /><polygon fill="white" points="249.7624072966298,249.58847736625515 250.47518540674042,250.0 249.7624072966298,250.41152263374485" /><polygon fill="white" points="250.2375927033702,249.58847736625515 250.2375927033702,250.41152263374485 249.52481459325958,250.0" /></g></svg>