<?xml version="1.0" encoding="utf-8" ?>
<svg baseProfile="full" height="500px" version="1.1" width="500px" xmlns="http://www.w3.org/2000/svg" xmlns:ev="http://www.w3.org/2001/xml-events" xmlns:xlink="http://www.w3.org/1999/xlink"><defs><style type="text/css"><![CDATA[@keyframes spin { from { transform: rotate(0deg); } to { transform: rotate(360deg); } } .spinner { transform-origin: 250.0px 250.0px; animation: spin 1s linear infinite; }]]></style></defs><g class="spinner"><circle cx="250.0" cy="250.0" fill="white" r="200.0" stroke="black" stroke-width="3" /><path d="M 250.0,50.0 A 200.0,200.0 0 0,1 250.0,450.0 A 100.0,100.0 0 0,1 250.0,250.0 A 100.0,100.0 0 0,0 250.0,50.0 Z" fill="black" /><circle cx="250.0" cy="350.0" fill="black" r="50.0" stroke="black" stroke-width="2" /><polygon fill="black" points="250.0,235.0 230.01530142205593,177.5065778087482 169.16019611491197,176.26644452187054 217.66407844596478,139.4934221912518 200.03825355513976,81.23355547812947 250.0,116.0 299.9617464448602,81.23355547812946 282.3359215540352,139.49342219125177 330.83980388508803,176.2664445218705 269.9846985779441,177.5065778087482" /><polygon fill="white" points="250.0,192.5 240.00765071102796,163.7532889043741 209.58009805745598,163.13322226093527 233.8320392229824,144.7467110956259 225.01912677756988,115.61677773906473 250.0,133.0 274.9808732224301,115.61677773906473 266.1679607770176,144.7467110956259 290.419901942544,163.13322226093527 259.99234928897204,163.7532889043741" /><polygon fill="white" points="250.0,265.0 269.9846985779441,322.4934221912518 330.83980388508803,323.73355547812946 282.3359215540352,360.5065778087482 299.96174644486024,418.76644452187054 250.0,384.0 200.0382535551398,418.76644452187054 217.66407844596478,360.5065778087482 169.16019611491194,323.73355547812946 230.0153014220559,322.4934221912518" /><polygon fill="black" points="250.0,307.5 259.99234928897204,336.24671109562587 290.419901942544,336.86677773906473 266.1679607770176,355.25328890437413 274.9808732224301,384.38322226093527 250.0,367.0 225.0191267775699,384.38322226093527 233.8320392229824,355.25328890437413 209.58009805745598,336.86677773906473 240.00765071102796,336.24671109562587" /></g></svg>