<?xml version="1.0" encoding="utf-8" ?>
<svg baseProfile="full" height="500px" version="1.1" width="500px" xmlns="http://www.w3.org/2000/svg" xmlns:ev="http://www.w3.org/2001/xml-events" xmlns:xlink="http://www.w3.org/1999/xlink"><defs /><circle cx="250.0" cy="250.0" fill="black" r="201.0" /><path d="M 250.0,50.0 A 200.0,200.0 0 0,1 250.0,450.0 A 100.0,100.0 0 0,1 250.0,250.0 A 100.0,100.0 0 0,0 250.0,50.0 Z" fill="black" /><path d="M 250.0,50.0 A 200.0,200.0 0 0,1 250.0,450.0 A 100.0,100.0 0 0,1 250.0,250.0 A 100.0,100.0 0 0,0 250.0,50.0 Z" fill="white" transform="rotate(180, 250.0, 250.0)" /><path d="M 370.2081528017131,129.79184719828692 A 170.0,170.0 0 0,1 250.0,420.0 A 70.0,70.0 0 0,1 250.0,280.0 A 130.0,130.0 0 0,0 370.2081528017131,129.79184719828692 Z" fill="white" /><path d="M 370.2081528017131,129.79184719828692 A 170.0,170.0 0 0,1 250.0,420.0 A 70.0,70.0 0 0,1 250.0,280.0 A 130.0,130.0 0 0,0 370.2081528017131,129.79184719828692 Z" fill="black" transform="rotate(180, 250.0, 250.0)" /><circle cx="250.0" cy="150.0" fill="white" r="100.0" stroke="white" stroke-width="0" /><circle cx="250.0" cy="150.0" fill="black" r="70.0" stroke="black" stroke-width="0" /><circle cx="250.0" cy="350.0" fill="black" r="100.0" stroke="black" stroke-width="0" /><circle cx="250.0" cy="350.0" fill="white" r="70.0" stroke="white" stroke-width="0" /><polygon fill="white" points="250.0,83.5 265.6350877109798,128.4801479496264 313.2452583336277,129.45036987406598 275.2981033334511,158.2198520503736 289.0877192774495,203.79963012593402 250.0,176.6 210.91228072255055,203.79963012593402 224.70189666654892,158.21985205037362 186.7547416663723,129.450369874066 234.3649122890202,128.4801479496264" /><polygon fill="black" points="250.0,416.5 234.36491228902022,371.51985205037363 186.7547416663723,370.549630125934 224.70189666654892,341.7801479496264 210.91228072255052,296.200369874066 250.0,323.4 289.0877192774494,296.200369874066 275.2981033334511,341.7801479496264 313.2452583336277,370.54963012593396 265.6350877109798,371.5198520503736" /></svg>